<?xml version="1.0" encoding="UTF-8"?>
<svg width="22px" height="33px" viewBox="0 0 22 33" version="1.1" xmlns="http://www.w3.org/2000/svg" xmlns:xlink="http://www.w3.org/1999/xlink">
    <!-- Generator: Sketch 42 (36781) - http://www.bohemiancoding.com/sketch -->
    <title>bulb</title>
    <desc>Created with Sketch.</desc>
    <defs>
        <rect id="path-1" x="0" y="0" width="40" height="40"></rect>
    </defs>
    <g id="Portfolio" stroke="none" stroke-width="1" fill="none" fill-rule="evenodd">
        <g id="tr" transform="translate(-853.000000, -8979.000000)">
            <g id="04-designprinciples" transform="translate(135.000000, 8639.000000)">
                <g id="Group-2" transform="translate(0.000000, 242.577211)">
                    <g id="370w-text-copy-3" transform="translate(600.000000, 0.000000)">
                        <g id="bulb" transform="translate(108.000000, 95.000000)">
                            <mask id="mask-2" fill="white">
                                <use xlink:href="#path-1"></use>
                            </mask>
                            <g id="Rectangle-2"></g>
                            <path d="M21,3 C14.924,3 10,7.924 10,14 C10,18.031 13.688,22.303 15.031,26.055 C17.034,31.65 16.812,35 21,35 C25.25,35 24.965,31.666 26.969,26.078 C28.316,22.318 32,18 32,14 C32,7.924 27.074,3 21,3 Z M23.592,30.176 L18.634,30.795 C18.457,30.283 18.267,29.684 18.036,28.902 C18.033,28.892 18.029,28.881 18.027,28.871 L24.215,28.098 C24.127,28.393 24.033,28.703 23.951,28.981 C23.82,29.43 23.703,29.82 23.592,30.176 Z M17.736,27.908 C17.554,27.306 17.349,26.672 17.121,26 L24.887,26 C24.764,26.359 24.641,26.719 24.535,27.059 L17.736,27.908 Z M21,33 C19.987,33 19.521,32.883 19.003,31.75 L23.241,31.219 C22.627,32.873 22.18,33 21,33 Z M25.672,24 L16.339,24 C15.841,22.92 15.243,21.84 14.653,20.783 C13.348,18.448 12,16.033 12,14 C12,9.037 16.037,5 21,5 C25.963,5 30,9.037 30,14 C30,16.018 28.65,18.446 27.344,20.795 C26.76,21.848 26.166,22.926 25.672,24 Z M21,8 C21.275,8 21.5,8.224 21.5,8.5 C21.5,8.776 21.276,9 21,9 C18.243,9 16,11.243 16,14 C16,14.276 15.776,14.5 15.5,14.5 C15.224,14.5 15,14.276 15,14 C15,10.691 17.691,8 21,8 Z" id="lightbulb" fill="#F6A623" mask="url(#mask-2)"></path>
                        </g>
                    </g>
                </g>
            </g>
        </g>
    </g>
</svg>