<?xml version="1.0" encoding="UTF-8"?>
<svg width="32px" height="33px" viewBox="0 0 32 33" version="1.1" xmlns="http://www.w3.org/2000/svg" xmlns:xlink="http://www.w3.org/1999/xlink">
    <!-- Generator: Sketch 42 (36781) - http://www.bohemiancoding.com/sketch -->
    <title>earth</title>
    <desc>Created with Sketch.</desc>
    <defs>
        <rect id="path-1" x="0" y="0" width="40" height="40"></rect>
    </defs>
    <g id="Portfolio" stroke="none" stroke-width="1" fill="none" fill-rule="evenodd">
        <g id="tr" transform="translate(-1148.000000, -8979.000000)">
            <g id="04-designprinciples" transform="translate(135.000000, 8639.000000)">
                <g id="Group-2" transform="translate(0.000000, 242.577211)">
                    <g id="370w-text-copy-4" transform="translate(900.000000, 0.000000)">
                        <g id="earth" transform="translate(108.000000, 95.000000)">
                            <mask id="mask-2" fill="white">
                                <use xlink:href="#path-1"></use>
                            </mask>
                            <g id="Rectangle-2-Copy"></g>
                            <path d="M21,3 C12.163,3 5,10.163 5,19 C5,27.837 12.163,35 21,35 C29.837,35 37,27.837 37,19 C37,10.163 29.837,3 21,3 Z M21,33 C19.033,33 17.16,32.593 15.462,31.861 L22.748,23.664 C22.911,23.481 23.001,23.245 23.001,23 L23.001,20 C23.001,19.448 22.553,19 22.001,19 C18.47,19 14.745,15.329 14.708,15.293 C14.52,15.105 14.266,15 14.001,15 L10.001,15 C9.449,15 9.001,15.448 9.001,16 L9.001,22 C9.001,22.379 9.215,22.725 9.554,22.894 L13.001,24.618 L13.001,30.489 C9.374,27.959 7.001,23.757 7.001,19 C7.001,16.853 7.485,14.819 8.349,13 L12.001,13 C12.266,13 12.521,12.895 12.708,12.707 L16.708,8.707 C16.896,8.519 17.001,8.265 17.001,8 L17.001,5.581 C18.269,5.204 19.611,5 21.001,5 C23.201,5 25.282,5.508 27.135,6.412 C27.005,6.521 26.879,6.636 26.759,6.757 C25.626,7.89 25.002,9.397 25.002,11 C25.002,12.603 25.626,14.109 26.759,15.243 C27.898,16.382 29.422,17.001 30.998,17.001 C31.097,17.001 31.196,16.999 31.295,16.994 C31.727,18.613 32.506,22.827 31.032,28.629 C31.018,28.684 31.01,28.738 31.006,28.792 C28.465,31.388 24.922,33 21.002,33 L21,33 Z" id="accessible" fill="#7ED321" mask="url(#mask-2)"></path>
                        </g>
                    </g>
                </g>
            </g>
        </g>
    </g>
</svg>