<?xml version="1.0" encoding="UTF-8"?>
<svg width="37px" height="24px" viewBox="0 0 37 24" version="1.1" xmlns="http://www.w3.org/2000/svg" xmlns:xlink="http://www.w3.org/1999/xlink">
    <!-- Generator: Sketch 42 (36781) - http://www.bohemiancoding.com/sketch -->
    <title>eye</title>
    <desc>Created with Sketch.</desc>
    <defs>
        <rect id="path-1" x="0" y="0" width="40" height="40"></rect>
    </defs>
    <g id="Portfolio" stroke="none" stroke-width="1" fill="none" fill-rule="evenodd">
        <g id="tr" transform="translate(-552.000000, -8985.000000)">
            <g id="04-designprinciples" transform="translate(135.000000, 8639.000000)">
                <g id="Group-2" transform="translate(0.000000, 242.577211)">
                    <g id="370w-text-copy" transform="translate(300.000000, 0.000000)">
                        <g id="eye" transform="translate(115.000000, 97.000000)">
                            <mask id="mask-2" fill="white">
                                <use xlink:href="#path-1"></use>
                            </mask>
                            <g id="Rectangle-2"></g>
                            <path d="M38.9595312,18.2424 C38.9479687,18.1941 38.9549062,18.14235 38.9364062,18.0952 C38.9294687,18.07565 38.912125,18.0653 38.9051875,18.0469 C38.893625,18.0193 38.8959375,17.98825 38.8809062,17.9618 C35.5277812,11.57815 28.228375,7.0046 20.52775,7.0046 C12.8259687,7.0046 5.52771875,11.57125 2.17228125,17.95375 C2.15725,17.9802 2.1595625,18.01125 2.148,18.03885 C2.13990625,18.05725 2.12371875,18.0676 2.11678125,18.08715 C2.09828125,18.1343 2.10521875,18.18605 2.09365625,18.23435 C2.07284375,18.3206 2.0531875,18.4034 2.0531875,18.49195 C2.0531875,18.5805 2.074,18.66215 2.09365625,18.74955 C2.10521875,18.79785 2.09828125,18.8496 2.11678125,18.89675 C2.12371875,18.9163 2.1410625,18.92665 2.148,18.94505 C2.1595625,18.97265 2.15725,19.0037 2.17228125,19.03015 C5.5265625,25.4138 12.8259687,29.98735 20.52775,29.98735 C28.228375,29.98735 35.5277812,25.4207 38.8809062,19.0382 C38.8970937,19.01175 38.8947812,18.9807 38.9051875,18.9531 C38.912125,18.9347 38.9294687,18.92435 38.9364062,18.9048 C38.9549062,18.85765 38.9479687,18.8059 38.9595312,18.7576 C38.9791875,18.6702 39,18.5874 39,18.5 C39,18.4126 38.9791875,18.32865 38.9595312,18.2424 Z M20.5265938,27.6862 C14.03425,27.6862 7.67834375,24.01655 4.511375,18.49195 C7.6956875,12.96045 14.0423438,9.30345 20.5265938,9.30345 C27.016625,9.30345 33.3736875,12.97425 36.5406563,18.4977 C33.3563438,24.03035 27.0108438,27.6862 20.5265938,27.6862 L20.5265938,27.6862 Z M20.5265937,13.89885 C20.8457187,13.89885 21.1024062,14.1553 21.1024062,14.47385 C21.1024062,14.7901 20.8445625,15.0477 20.5265937,15.0477 L20.5265937,15.04885 C18.6141562,15.04885 17.059,16.5956 17.059,18.4954 C17.059,18.8128 16.8,19.0704 16.4820312,19.0704 C16.1640625,19.0704 15.9039062,18.8128 15.9039062,18.4954 C15.9039062,15.95965 17.970125,13.9046 20.5196562,13.9 C20.5219687,13.9 20.5242812,13.89885 20.5265937,13.89885 L20.5265937,13.89885 Z M20.5,10.45 C16.0287812,10.45 12.40625,14.0541 12.40625,18.5 C12.40625,22.9459 16.0299375,26.55 20.5,26.55 C24.9689063,26.55 28.59375,22.94475 28.59375,18.5 C28.59375,14.05295 24.9689063,10.45 20.5,10.45 Z M20.5,25.4 C16.6739688,25.4 13.5625,22.30535 13.5625,18.5 C13.5625,14.69465 16.6739688,11.6 20.5,11.6 C24.3260312,11.6 27.4375,14.69465 27.4375,18.5 C27.4375,22.30535 24.3260312,25.4 20.5,25.4 Z" fill="#4990E2" mask="url(#mask-2)"></path>
                        </g>
                    </g>
                </g>
            </g>
        </g>
    </g>
</svg>