<?xml version="1.0" encoding="UTF-8"?>
<svg width="32px" height="29px" viewBox="0 0 32 29" version="1.1" xmlns="http://www.w3.org/2000/svg" xmlns:xlink="http://www.w3.org/1999/xlink">
    <!-- Generator: Sketch 42 (36781) - http://www.bohemiancoding.com/sketch -->
    <title>heart</title>
    <desc>Created with Sketch.</desc>
    <defs>
        <rect id="path-1" x="0" y="0" width="40" height="40"></rect>
    </defs>
    <g id="Portfolio" stroke="none" stroke-width="1" fill="none" fill-rule="evenodd">
        <g id="tr" transform="translate(-255.000000, -8983.000000)">
            <g id="04-designprinciples" transform="translate(135.000000, 8639.000000)">
                <g id="Group-2" transform="translate(0.000000, 242.577211)">
                    <g id="370w-text">
                        <g id="heart" transform="translate(116.000000, 95.000000)">
                            <mask id="mask-2" fill="white">
                                <use xlink:href="#path-1"></use>
                            </mask>
                            <g id="Rectangle-2"></g>
                            <path d="M33.193,9.265 C29.564,5.669 23.761,5.594 20.002,8.977 C16.242,5.594 10.441,5.669 6.81,9.265 C3.069,12.969 3.069,18.974 6.81,22.68 C7.879,23.739 17.863,33.621 17.863,33.621 C19.046,34.793 20.959,34.793 22.141,33.621 C22.141,33.621 33.073,22.799 33.194,22.68 C36.936,18.974 36.936,12.969 33.193,9.265 L33.193,9.265 Z M31.768,21.268 L20.715,32.209 C20.322,32.6 19.681,32.6 19.29,32.209 L8.237,21.268 C5.287,18.348 5.287,13.597 8.237,10.677 C11.081,7.862 15.653,7.763 18.646,10.455 L20.002,11.675 L21.357,10.455 C24.351,7.763 28.923,7.861 31.767,10.677 C34.717,13.596 34.717,18.347 31.768,21.268 Z M13.253,11.501 C13.53,11.501 13.753,11.725 13.753,12.001 C13.753,12.277 13.529,12.501 13.253,12.501 L13.252,12.501 C11.458,12.501 10.003,13.956 10.003,15.75 L10.003,15.751 C10.003,16.027 9.779,16.251 9.503,16.251 C9.227,16.251 9.003,16.027 9.003,15.751 L9.003,15.751 C9.003,13.405 10.904,11.504 13.249,11.502 C13.251,11.502 13.251,11.501 13.253,11.501 L13.253,11.501 Z" fill="#FF5757" mask="url(#mask-2)"></path>
                        </g>
                    </g>
                </g>
            </g>
        </g>
    </g>
</svg>