<?xml version="1.0" encoding="UTF-8"?>
<svg width="512px" height="512px" viewBox="0 0 512 512" version="1.1" xmlns="http://www.w3.org/2000/svg" xmlns:xlink="http://www.w3.org/1999/xlink">
    <!-- Generator: Sketch 42 (36781) - http://www.bohemiancoding.com/sketch -->
    <title>512</title>
    <desc>Created with Sketch.</desc>
    <defs></defs>
    <g id="Home" stroke="none" stroke-width="1" fill="none" fill-rule="evenodd">
        <g id="512" fill="#00BCD4">
            <path d="M278.910874,448.695312 C272.280835,448.695312 269.609591,444.056527 272.949542,438.325615 L440.377637,151.041244 C443.715324,145.314218 446.421053,146.050418 446.421053,152.675508 L446.421053,436.69135 C446.421053,443.320955 441.048528,448.695312 434.416306,448.695312 L278.910874,448.695312 Z M64.0793807,448.695312 C57.4541503,448.695312 54.7995036,444.049874 58.1365802,438.342491 L271.251779,73.852821 C274.594891,68.1351159 282.684021,63.5 289.299662,63.5 L429.789493,63.5 C436.413951,63.5 439.070004,68.1283517 435.713092,73.852821 L221.971084,438.342491 C218.618139,444.060197 210.519486,448.695312 203.904,448.695312 L64.0793807,448.695312 Z M73.7128621,325.073822 C70.364509,330.788994 67.6501325,330.051435 67.6501325,323.431155 L67.6501325,75.4909014 C67.6501325,68.8685094 73.0191,63.5 79.6569997,63.5 L214.954482,63.5 C221.585692,63.5 224.246411,68.1340224 220.89862,73.8482349 L73.7128621,325.073822 Z" id="z-copy-4"></path>
        </g>
    </g>
</svg>