<?xml version="1.0" encoding="UTF-8"?>
<svg width="197px" height="150px" viewBox="0 0 197 150" version="1.1" xmlns="http://www.w3.org/2000/svg" xmlns:xlink="http://www.w3.org/1999/xlink">
    <!-- Generator: Sketch 42 (36781) - http://www.bohemiancoding.com/sketch -->
    <title>Imported Layers</title>
    <desc>Created with Sketch.</desc>
    <defs></defs>
    <g id="Portfolio" stroke="none" stroke-width="1" fill="none" fill-rule="evenodd">
        <g id="lique" transform="translate(-622.000000, -215.000000)">
            <g id="Imported-Layers" transform="translate(622.000000, 215.000000)">
                <polygon id="Fill-1" fill="#2BB19C" points="44.9253428 0 196.774421 0 196.774421 149.947358 44.9253428 149.947358"></polygon>
                <polygon id="Fill-2" fill="#17A094" points="0.142183115 149.986261 78.7884997 57.5487478 174.713518 57.5487478 96.0692694 149.986261"></polygon>
                <polygon id="Fill-3" fill="#FFFFFF" points="69.0843993 54.3364676 72.3373973 54.3364676 72.3373973 89.3736619 69.0843993 89.3736619"></polygon>
                <polygon id="Fill-4" fill="#FFFFFF" points="78.5925249 63.2639041 81.8455229 63.2639041 81.8455229 89.3736619 78.5925249 89.3736619"></polygon>
                <polygon id="Fill-5" fill="#FFFFFF" points="78.5935615 54.3364676 174.785066 54.3364676 174.785066 57.5487478 78.5935615 57.5487478"></polygon>
                <path d="M114.239703,63.2639041 L114.239703,97.8158783 L110.986705,97.8158783 L110.986705,84.4672058 C109.635954,86.094843 108.122449,87.3201775 106.443081,88.1411618 C104.76475,88.9621461 102.928848,89.3736619 100.935376,89.3736619 C97.3931534,89.3736619 94.3682177,88.0991913 91.8616055,85.5512736 C89.3539566,83.0023323 88.1006504,79.9026559 88.1006504,76.2512207 C88.1006504,72.6755372 89.3663963,69.6168076 91.8968515,67.075032 C94.4262699,64.5342801 97.4698653,63.2639041 101.027638,63.2639041 C103.082272,63.2639041 104.94098,63.6969171 106.605835,64.5619192 C108.26758,65.4279451 109.727179,66.7280075 110.986705,68.4621065 L110.986705,63.2639041 L114.239703,63.2639041 L114.239703,63.2639041 Z M101.276433,66.3267284 C99.4840703,66.3267284 97.8306184,66.763836 96.3150406,67.6390749 C94.7994628,68.5122664 93.5928058,69.7406719 92.6981795,71.3222439 C91.8025166,72.9038159 91.3546851,74.5764946 91.3546851,76.3413038 C91.3546851,78.0887105 91.8066632,79.762413 92.708546,81.35934 C93.6114655,82.9562671 94.8264157,84.199004 96.34925,85.0885742 C97.8741576,85.9781445 99.5068765,86.4224178 101.253627,86.4224178 C103.013853,86.4224178 104.682855,85.9822392 106.261668,85.0998346 C107.837371,84.2184537 109.051285,83.0238294 109.901335,81.5190328 C110.750349,80.0142361 111.175374,78.3180129 111.175374,76.4313869 C111.175374,73.5579418 110.221659,71.1553855 108.316302,69.2237179 C106.408872,67.293074 104.06294,66.3267284 101.276433,66.3267284 L101.276433,66.3267284 Z" id="Fill-6" fill="#FFFFFF"></path>
                <path d="M120.526966,63.2639041 L123.779964,63.2639041 L123.779964,75.4957514 C123.779964,78.3292733 123.934425,80.2762959 124.242309,81.3419376 C124.70569,82.8641367 125.58995,84.0669504 126.895088,84.9483313 C128.200227,85.8327832 129.756234,86.2729618 131.562073,86.2729618 C133.367912,86.2729618 134.900076,85.8440436 136.158565,84.9831361 C137.416018,84.1232523 138.286801,82.9931193 138.764695,81.5927371 C139.089166,80.6345808 139.250883,78.6025935 139.250883,75.4957514 L139.250883,63.2639041 L142.542237,63.2639041 L142.542237,76.088457 C142.542237,79.5126372 142.137945,82.091265 141.32936,83.8263876 C140.517665,85.5615103 139.300642,86.919922 137.674143,87.9016227 C136.047644,88.8822997 134.008559,89.3736619 131.557926,89.3736619 C129.106256,89.3736619 127.059915,88.8822997 125.417866,87.9016227 C123.775818,86.919922 122.549464,85.5512736 121.74088,83.7915828 C120.931258,82.0359867 120.526966,79.3908203 120.526966,75.8591547 L120.526966,63.2639041" id="Fill-7" fill="#FFFFFF"></path>
                <path d="M171.22522,80.4830775 L173.951602,81.8977911 C173.054902,83.6359848 172.022402,85.0373907 170.847881,86.1040561 C169.674397,87.1707215 168.354745,87.9824927 166.88789,88.5393699 C165.421034,89.0941997 163.760326,89.3736619 161.907838,89.3736619 C157.79857,89.3736619 154.588074,88.0459604 152.271168,85.3905572 C149.955299,82.7372015 148.798401,79.7347738 148.798401,76.3853217 C148.798401,73.236509 149.779069,70.4316499 151.739368,67.965626 C154.225248,64.8311448 157.551848,63.2639041 161.722278,63.2639041 C166.013996,63.2639041 169.441151,64.8679969 172.005816,68.0761825 C173.826168,70.3425905 174.753967,73.1699704 174.784029,76.5613931 L152.126038,76.5613931 C152.1872,79.4460986 153.123292,81.8118027 154.932241,83.6564582 C156.739116,85.5000901 158.971017,86.4224178 161.630017,86.4224178 C162.911312,86.4224178 164.159435,86.2023285 165.373349,85.7631736 C166.585189,85.3240186 167.617689,84.740526 168.466703,84.0106485 C169.318827,83.2828182 170.235223,82.1076437 171.22522,80.4830775 L171.22522,80.4830775 Z M171.229367,73.7964572 C170.796049,72.097163 170.166804,70.7387513 169.33956,69.7201984 C168.512316,68.7036929 167.41969,67.8827086 166.059609,67.2613402 C164.699528,66.6389481 163.268955,66.3267284 161.769964,66.3267284 C159.297561,66.3267284 157.171398,67.1098369 155.394585,68.6729828 C154.096703,69.8113052 153.114999,71.5198124 152.449471,73.7964572 L171.229367,73.7964572 L171.229367,73.7964572 Z" id="Fill-8" fill="#FFFFFF"></path>
            </g>
        </g>
    </g>
</svg>