<?xml version="1.0" encoding="UTF-8"?>
<svg width="420px" height="138px" viewBox="0 0 420 138" version="1.1" xmlns="http://www.w3.org/2000/svg" xmlns:xlink="http://www.w3.org/1999/xlink">
    <!-- Generator: Sketch 42 (36781) - http://www.bohemiancoding.com/sketch -->
    <title>Google_logo</title>
    <desc>Created with Sketch.</desc>
    <defs></defs>
    <g id="Portfolio" stroke="none" stroke-width="1" fill="none" fill-rule="evenodd">
        <g id="google" transform="translate(-510.000000, -210.000000)">
            <g id="Google_logo" transform="translate(510.000000, 210.000000)">
                <g id="svg2">
                    <path d="M103.3662,48.8353918 L54.4068,48.8353918 L54.4068,63.3754593 L89.12946,63.3754593 C87.414096,83.7645926 70.46466,92.4597976 54.4656,92.4597976 C33.99648,92.4597976 16.13472,76.3413441 16.13472,53.749616 C16.13472,31.7417436 33.16152,14.7926933 54.51054,14.7926933 C70.98168,14.7926933 80.68746,25.3012558 80.68746,25.3012558 L90.85986,14.7586456 C90.85986,14.7586456 77.80332,0.211432278 53.99058,0.211432278 C23.66784,0.211011936 0.20958,25.8241619 0.20958,53.4898443 C0.20958,80.5989933 22.27596,107.033072 54.76338,107.033072 C83.3364,107.033072 104.25198,87.4434302 104.25198,58.4751064 C104.25198,52.3637468 103.365402,48.8316087 103.365402,48.8316087 L103.3662,48.8353918 Z" id="path2998" fill="#4885ED"></path>
                    <path d="M143.472,38.3053918 C123.38256,38.3053918 108.98538,54.0240996 108.98538,72.3564971 C108.98538,90.9600156 122.94996,106.970861 143.70804,106.970861 C162.49968,106.970861 177.89478,92.5964089 177.89478,72.7562429 C177.89478,50.0165542 159.98682,38.3053918 143.472,38.3053918 L143.472,38.3053918 Z M143.671765,51.7912403 C153.551005,51.7912403 162.912805,59.7848936 162.912805,72.6654489 C162.912805,85.2727815 153.590905,93.4942605 143.626405,93.4942605 C132.677845,93.4942605 124.040545,84.7183498 124.040545,72.5654074 C124.040545,60.6730773 132.570745,51.7912403 143.671765,51.7912403 L143.671765,51.7912403 Z" id="path3000" fill="#DB3236"></path>
                    <path d="M218.4756,38.3053918 C198.38616,38.3053918 183.98898,54.0240996 183.98898,72.3564971 C183.98898,90.9600156 197.95356,106.970861 218.71164,106.970861 C237.50328,106.970861 252.89838,92.5964089 252.89838,72.7562429 C252.89838,50.0165542 234.99042,38.3053918 218.4756,38.3053918 L218.4756,38.3053918 Z M218.67536,51.7912403 C228.5546,51.7912403 237.9164,59.7848936 237.9164,72.6654489 C237.9164,85.2727815 228.5945,93.4942605 218.63,93.4942605 C207.68144,93.4942605 199.04414,84.7183498 199.04414,72.5654074 C199.04414,60.6730773 207.57434,51.7912403 218.67536,51.7912403 L218.67536,51.7912403 Z" id="path3005" fill="#F4C20D"></path>
                    <path d="M292.0428,38.3415413 C273.60312,38.3415413 259.10892,54.5049715 259.10892,72.6469538 C259.10892,93.3122522 275.9127,107.016258 291.72486,107.016258 C301.50204,107.016258 306.7008,103.132084 310.53918,98.6737208 L310.53918,105.443757 C310.53918,117.289009 303.35298,124.382289 292.50606,124.382289 C282.02748,124.382289 276.7716,116.584515 274.94502,112.159569 L261.7608,117.675724 C266.43792,127.573529 275.85348,137.895459 292.61526,137.895459 C310.9491,137.895459 324.9225,126.338142 324.9225,102.099512 L324.9225,40.4058433 L310.5396,40.4058433 L310.5396,46.2217021 C306.117,41.4520758 300.069,38.3423819 292.0428,38.3423819 L292.0428,38.3415413 Z M293.37756,51.8000675 C302.41806,51.8000675 311.70132,59.5259626 311.70132,72.7196731 C311.70132,86.1302802 302.4378,93.5211624 293.17764,93.5211624 C283.34712,93.5211624 274.19994,85.5325532 274.19994,72.8470368 C274.19994,59.6659367 283.69992,51.8000675 293.37714,51.8000675 L293.37756,51.8000675 Z" id="path3007" fill="#4885ED"></path>
                    <path d="M388.8738,38.2595745 C371.47992,38.2595745 356.87526,52.1098599 356.87526,72.5469123 C356.87526,94.172273 373.15404,106.997763 390.54456,106.997763 C405.05892,106.997763 413.96712,99.050768 419.28348,91.9305864 L407.42478,84.0336118 C404.347524,88.8133264 399.20286,93.4845926 390.61722,93.4845926 C380.97318,93.4845926 376.53882,88.199206 373.7916,83.0794344 L419.79,63.9773897 L417.401922,58.3792683 C412.958322,47.4167359 402.592722,38.2616762 388.875522,38.2616762 L388.8738,38.2595745 Z M389.473056,51.4637935 C395.740716,51.4637935 400.251516,54.7988749 402.167136,58.7975091 L371.448756,71.6473793 C370.124412,61.6991334 379.541736,51.4637935 389.473056,51.4637935 Z" id="path3011" fill="#DB3236"></path>
                    <polygon id="path3015" fill="#3CBA54" points="334.9458 104.959523 350.0553 104.959523 350.0553 3.76206539 334.9458 3.76206539"></polygon>
                </g>
            </g>
        </g>
    </g>
</svg>